<?xml version="1.0" encoding="UTF-8"?>
<svg id="Camada_1" xmlns="http://www.w3.org/2000/svg" version="1.1" viewBox="0 0 777.6 251.4">
  <!-- Generator: Adobe Illustrator 29.5.0, SVG Export Plug-In . SVG Version: 2.1.0 Build 137)  -->
  <defs>
    <style>
      .st0 {
        fill: #ff5f00;
      }

      .st1 {
        fill: #bed200;
      }

      .st2 {
        fill: #00c2dc;
      }

      .st3 {
        fill: #00294a;
      }
    </style>
  </defs>
  <path class="st3" d="M362.3,211.1h-8c-2,0-3.6-1.6-3.6-3.6v-65.5c0-.5-.2-1.3-.2-2-.9-4.7-5-8.1-10.1-8.1h-6.4c-2,0-3.7,1.6-3.7,3.6v71.9c0,2-1.6,3.6-3.6,3.6h-8.3c-2,0-3.6-1.6-3.6-3.6V44.1c0-2,1.6-3.6,3.6-3.6h22c13.5,0,25.5,10.4,25.5,23.7v44.2c0,1.4-.4,3-.5,4.3-1.4,5.2-4.1,9.5-7.9,12.9v.8c3,2.5,5.2,5.7,6.7,9.3.9,2.3,1.8,5,1.8,7.9v64c0,2-1.6,3.6-3.6,3.6M350.7,62.9c0-.7,0-1.4-.2-2-.9-4.7-5-8.3-10.1-8.3h-6.4c-2,0-3.7,1.6-3.7,3.6v59.7c0,2,1.6,3.6,3.7,3.6h6.4c5,0,9.1-3.4,10.1-8.1,0-.7.2-1.4.2-2v-46.7.2Z"/>
  <path class="st3" d="M427.5,43.7l14.9,163.4c.2,2.1-1.5,4-3.6,4h-8.1c-1.9,0-3.5-1.5-3.6-3.4l-.7-9c-.2-2.6-2.4-4.6-4.9-4.6h-8.6c-2.6,0-4.7,2-4.9,4.6l-.8,9.1c-.2,1.9-1.7,3.3-3.6,3.3h-7.9c-2.1,0-3.8-1.8-3.6-4l14.7-163.4c.2-1.9,1.7-3.3,3.6-3.3h13.4c1.9,0,3.4,1.4,3.6,3.3M420.5,180.4c2.5,0,4.5-2.2,4.3-4.7l-7.5-101.2-.2-.4-.3.4-7,101.2c-.2,2.5,1.8,4.7,4.3,4.7h6.4Z"/>
  <path class="st3" d="M480.2,211.1h-8c-2,0-3.6-1.6-3.6-3.6V44.1c0-2,1.6-3.6,3.6-3.6h8c2,0,3.6,1.6,3.6,3.6v163.4c0,2-1.6,3.6-3.6,3.6"/>
  <path class="st3" d="M561,53.1l-34.5,141.5c-.6,2.3,1.2,4.5,3.5,4.5h27.4c2,0,3.7,1.6,3.7,3.6v4.7c0,2-1.6,3.6-3.7,3.6h-43.9c-2,0-3.6-1.6-3.6-3.6v-8.8c0,0,34.8-141.5,34.8-141.5.6-2.3-1.2-4.5-3.5-4.5h-27.6c-2,0-3.6-1.6-3.6-3.6v-4.9c0-2,1.6-3.6,3.6-3.6h43.9c2,0,3.7,1.6,3.7,3.6v9"/>
  <path class="st3" d="M630.7,202.5v4.9c0,2-1.6,3.6-3.7,3.6h-36.2c-2,0-3.6-1.6-3.6-3.6V44.1c0-2,1.6-3.7,3.6-3.7h8c2,0,3.6,1.6,3.6,3.7v151.2c0,2,1.6,3.7,3.7,3.7h20.9c2,0,3.7,1.6,3.7,3.6"/>
  <path class="st3" d="M672.1,56.3v60c0,2,1.6,3.6,3.7,3.6h13.2c2,0,3.6,1.6,3.6,3.6v4.8c0,2-1.6,3.6-3.6,3.6h-13.2c-2,0-3.7,1.6-3.7,3.7v59.8c0,2,1.6,3.7,3.7,3.7h20.9c2,0,3.7,1.6,3.7,3.6v4.8c0,2-1.6,3.6-3.7,3.6h-36.2c-2,0-3.6-1.6-3.6-3.6V44.1c0-2,1.6-3.7,3.6-3.7h36.2c2,0,3.7,1.6,3.7,3.7v4.9c0,2-1.6,3.6-3.7,3.6h-20.9c-2,0-3.7,1.6-3.7,3.7"/>
  <path class="st3" d="M773.9,211.1h-8c-2,0-3.6-1.6-3.6-3.6v-65.5c0-.5-.2-1.3-.2-2-.9-4.7-5-8.1-10.1-8.1h-6.4c-2,0-3.6,1.6-3.6,3.6v71.9c0,2-1.6,3.6-3.6,3.6h-8.3c-2,0-3.6-1.6-3.6-3.6V44.1c0-2,1.6-3.6,3.6-3.6h22c13.5,0,25.5,10.4,25.5,23.7v44.2c0,1.4-.4,3-.5,4.3-1.4,5.2-4.1,9.5-8,12.9v.8c3,2.5,5.2,5.7,6.7,9.3.9,2.3,1.8,5,1.8,7.9v64c0,2-1.6,3.6-3.6,3.6M762.3,62.9c0-.7,0-1.4-.2-2-.9-4.7-5-8.3-10.1-8.3h-6.4c-2,0-3.6,1.6-3.6,3.6v59.7c0,2,1.6,3.6,3.6,3.6h6.4c5,0,9.1-3.4,10.1-8.1,0-.7.2-1.4.2-2v-46.7.2Z"/>
  <path class="st1" d="M125.8,0h0c69.5,0,125.7,56.3,125.7,125.7v125.7h-125.7C56.3,251.4,0,195.1,0,125.7S56.3,0,125.8,0"/>
  <path class="st2" d="M118.3,100.7c-15.6,17-17.8,33.8-18,43.2v-55.9c0-10,7.6-13.4,17.6-13.6,10.2-.2,18.2,2.4,18.4,12.3-8,4.2-13.8,9.4-18,14"/>
  <path class="st3" d="M136.4,142.6v35.8c0,.7,0,1.3-.1,1.9,0,.5-.1,1-.2,1.5h0l-.2.8-.2.6-.2.6c-2.4,6-9,8.3-17,8.3h-.6c-9.9-.1-17.4-3.9-17.4-13.8v-34.6c.2-9.4,2.5-26.2,18-43.2,4.2-4.6,10-9.8,18-14v56.1q-.1,0-.1,0Z"/>
  <path class="st0" d="M166.7,112.4h0c-.7,0-1.3,0-1.9.2h0c-8.5.9-14.6,3.9-19.2,8.9-7.8,8.5-9,17.3-9.2,21.1v-55.9c6.8-3.5,15.1-6.3,25.3-7.3h1.3c9.1-.3,13.3,6.8,13.8,16,.5,8.7-1.8,16-10,17.2"/>
</svg>
